<mxfile host="app.diagrams.net" modified="2023-05-01T14:21:51.876Z" agent="Mozilla/5.0 (Macintosh; Intel Mac OS X 10_15_7) AppleWebKit/605.1.15 (KHTML, like Gecko) Version/16.3 Safari/605.1.15" etag="cEUG6eL_Nh1zf1OaA1qN" version="21.2.3" type="device">
  <diagram name="Seite-1" id="Kjq1X-w-RpnH9DcN0lGi">
    <mxGraphModel dx="1026" dy="584" grid="1" gridSize="10" guides="1" tooltips="1" connect="1" arrows="1" fold="1" page="1" pageScale="1" pageWidth="827" pageHeight="1169" math="0" shadow="0">
      <root>
        <mxCell id="0" />
        <mxCell id="1" parent="0" />
        <mxCell id="Duog06Mf450Wlo28tRTC-1" value="&amp;lt;&amp;lt;Subsystem&amp;gt;&amp;gt;&lt;br&gt;Bildschirm" style="rounded=0;whiteSpace=wrap;html=1;" vertex="1" parent="1">
          <mxGeometry x="60" y="280" width="120" height="60" as="geometry" />
        </mxCell>
        <mxCell id="Duog06Mf450Wlo28tRTC-2" value="&amp;lt;&amp;lt;System&amp;gt;&amp;gt;&lt;br&gt;Umweltbelastungspunkte" style="rounded=0;whiteSpace=wrap;html=1;" vertex="1" parent="1">
          <mxGeometry x="320" y="260" width="210" height="100" as="geometry" />
        </mxCell>
        <mxCell id="Duog06Mf450Wlo28tRTC-3" value="" style="endArrow=none;html=1;rounded=0;exitX=0;exitY=0.5;exitDx=0;exitDy=0;entryX=1;entryY=0.5;entryDx=0;entryDy=0;" edge="1" parent="1" source="Duog06Mf450Wlo28tRTC-2" target="Duog06Mf450Wlo28tRTC-1">
          <mxGeometry width="50" height="50" relative="1" as="geometry">
            <mxPoint x="390" y="330" as="sourcePoint" />
            <mxPoint x="440" y="280" as="targetPoint" />
          </mxGeometry>
        </mxCell>
        <mxCell id="Duog06Mf450Wlo28tRTC-4" value="" style="endArrow=none;html=1;rounded=0;" edge="1" parent="1" target="Duog06Mf450Wlo28tRTC-5">
          <mxGeometry width="50" height="50" relative="1" as="geometry">
            <mxPoint x="240" y="310" as="sourcePoint" />
            <mxPoint x="220" y="200" as="targetPoint" />
          </mxGeometry>
        </mxCell>
        <mxCell id="Duog06Mf450Wlo28tRTC-5" value="&amp;lt;&amp;lt;Library&amp;gt;&amp;gt;&lt;br&gt;OpenJFX" style="rounded=0;whiteSpace=wrap;html=1;" vertex="1" parent="1">
          <mxGeometry x="150" y="160" width="120" height="60" as="geometry" />
        </mxCell>
        <mxCell id="Duog06Mf450Wlo28tRTC-6" value="&amp;lt;&amp;lt;Library&amp;gt;&amp;gt;&lt;br&gt;jakarta.persistence" style="rounded=0;whiteSpace=wrap;html=1;" vertex="1" parent="1">
          <mxGeometry x="580" y="190" width="120" height="60" as="geometry" />
        </mxCell>
        <mxCell id="Duog06Mf450Wlo28tRTC-7" value="" style="endArrow=none;html=1;rounded=0;entryX=0;entryY=0.75;entryDx=0;entryDy=0;exitX=1;exitY=0;exitDx=0;exitDy=0;" edge="1" parent="1" source="Duog06Mf450Wlo28tRTC-2" target="Duog06Mf450Wlo28tRTC-6">
          <mxGeometry width="50" height="50" relative="1" as="geometry">
            <mxPoint x="390" y="330" as="sourcePoint" />
            <mxPoint x="440" y="280" as="targetPoint" />
          </mxGeometry>
        </mxCell>
        <mxCell id="Duog06Mf450Wlo28tRTC-8" value="&amp;lt;&amp;lt;Library&amp;gt;&amp;gt;&lt;br&gt;&lt;code style=&quot;text-align: start;&quot;&gt;&lt;font face=&quot;Helvetica&quot;&gt;google.code.gson&lt;/font&gt;&lt;/code&gt;" style="rounded=0;whiteSpace=wrap;html=1;" vertex="1" parent="1">
          <mxGeometry x="580" y="270" width="120" height="60" as="geometry" />
        </mxCell>
        <mxCell id="Duog06Mf450Wlo28tRTC-9" value="" style="endArrow=none;html=1;rounded=0;entryX=0;entryY=0.25;entryDx=0;entryDy=0;exitX=1;exitY=0.25;exitDx=0;exitDy=0;" edge="1" parent="1" target="Duog06Mf450Wlo28tRTC-8" source="Duog06Mf450Wlo28tRTC-2">
          <mxGeometry width="50" height="50" relative="1" as="geometry">
            <mxPoint x="530" y="340" as="sourcePoint" />
            <mxPoint x="440" y="360" as="targetPoint" />
          </mxGeometry>
        </mxCell>
        <mxCell id="Duog06Mf450Wlo28tRTC-11" value="&amp;lt;&amp;lt;Library&amp;gt;&amp;gt;&lt;br&gt;&lt;code style=&quot;text-align: start;&quot;&gt;&lt;font face=&quot;Helvetica&quot;&gt;junit.jupiter&lt;/font&gt;&lt;/code&gt;" style="rounded=0;whiteSpace=wrap;html=1;" vertex="1" parent="1">
          <mxGeometry x="580" y="350" width="120" height="60" as="geometry" />
        </mxCell>
        <mxCell id="Duog06Mf450Wlo28tRTC-12" value="" style="endArrow=none;html=1;rounded=0;entryX=0;entryY=0.25;entryDx=0;entryDy=0;exitX=1;exitY=0.5;exitDx=0;exitDy=0;" edge="1" parent="1" target="Duog06Mf450Wlo28tRTC-11" source="Duog06Mf450Wlo28tRTC-2">
          <mxGeometry width="50" height="50" relative="1" as="geometry">
            <mxPoint x="530" y="365" as="sourcePoint" />
            <mxPoint x="440" y="440" as="targetPoint" />
          </mxGeometry>
        </mxCell>
        <mxCell id="Duog06Mf450Wlo28tRTC-14" value="&amp;lt;&amp;lt;Library&amp;gt;&amp;gt;&lt;br&gt;&lt;code style=&quot;text-align: start;&quot;&gt;&lt;font face=&quot;Helvetica&quot;&gt;java-native.jssc&lt;/font&gt;&lt;/code&gt;" style="rounded=0;whiteSpace=wrap;html=1;" vertex="1" parent="1">
          <mxGeometry x="580" y="430" width="120" height="60" as="geometry" />
        </mxCell>
        <mxCell id="Duog06Mf450Wlo28tRTC-15" value="" style="endArrow=none;html=1;rounded=0;entryX=0;entryY=0.25;entryDx=0;entryDy=0;exitX=1;exitY=1;exitDx=0;exitDy=0;" edge="1" parent="1" target="Duog06Mf450Wlo28tRTC-14" source="Duog06Mf450Wlo28tRTC-2">
          <mxGeometry width="50" height="50" relative="1" as="geometry">
            <mxPoint x="530" y="390" as="sourcePoint" />
            <mxPoint x="440" y="520" as="targetPoint" />
          </mxGeometry>
        </mxCell>
      </root>
    </mxGraphModel>
  </diagram>
</mxfile>
